# xmcd
#
# Track frame offsets: 
#        150
#        13258
#        21830
#        36257
#        46991
#        62264
#        76489
#        90293
#        108959
#        124865
#        134256
#        156219
#        170034
#        181468
#        201475
#        210104
#
# Disc length: 2929 seconds
#
# Revision: 0
# Processed by: cddbd v1.5.2PL0 Copyright (c) Steve Scherf et al.
# Submitted via: ExactAudioCopy v0.99pb4
#
DISCID=d10b6f10
DTITLE=Willie Nelson, Merle Haggard, Ray Price - Live  From The Last o
DTITLE=f The Breed Tour
DYEAR=2007
DGENRE=
TTITLE0=Miles and Miles of Texas (Asleep at the Wheel)
TTITLE1=Make the World Go Away (Ray Price)
TTITLE2=For the Good Times (Ray Price)
TTITLE3=Take Me Back to Tulsa (Merle Haggard)
TTITLE4=Silver Wings (Merle Haggard)
TTITLE5=That's the Way Love Goes (Merle Haggard)
TTITLE6=Okie From Muskogee (Merle Haggard/ Willie Nelson)
TTITLE7=Pancho and Lefty (Wille Nelson/ Merle Haggard)
TTITLE8=Always on My Mind (Willie Nelson)
TTITLE9=Mama Tried (Merle Haggard)
TTITLE10=Ramblin' Fever (Merle Haggard - Willie Nelson)
TTITLE11=I Gotta Have My Baby Back (Willie Nelson)
TTITLE12=Night Life (Ray Price)
TTITLE13=Sing Me Back Home (Merle Haggard)
TTITLE14=Crazy (Willie Nelson - Ray Price)
TTITLE15=On the Road Again (Willie Nelson)
EXTD=
EXTT0=
EXTT1=
EXTT2=
EXTT3=
EXTT4=
EXTT5=
EXTT6=
EXTT7=
EXTT8=
EXTT9=
EXTT10=
EXTT11=
EXTT12=
EXTT13=
EXTT14=
EXTT15=
PLAYORDER=
